M48
; DRILL file {KiCad (5.1.8)-1} date 12/10/20 15:49:45
; FORMAT={-:-/ absolute / inch / decimal}
; #@! TF.CreationDate,2020-12-10T15:49:45+09:00
; #@! TF.GenerationSoftware,Kicad,Pcbnew,(5.1.8)-1
; #@! TF.FileFunction,Plated,1,2,PTH
FMAT,2
INCH
T1C0.0118
T2C0.0157
T3C0.0276
T4C0.0315
T5C0.0394
%
G90
G05
T1
X0.32Y1.21
X0.33Y1.675
X0.355Y1.31
X0.63Y1.83
X0.655Y1.88
X0.665Y1.065
X0.665Y0.965
X0.68Y1.93
X0.695Y1.53
X0.7Y1.805
X0.715Y1.855
X0.715Y1.305
X0.725Y1.005
X0.73Y1.905
X0.755Y0.52
X0.795Y1.98
X0.795Y1.93
X0.835Y1.255
X0.85Y0.505
X0.855Y1.155
X0.87Y1.055
X0.88Y0.955
X0.895Y0.855
X0.915Y0.755
X0.93Y0.505
X1.005Y0.505
X1.04Y2.055
X1.065Y2.005
X1.075Y1.14
X1.09Y1.955
X1.09Y1.055
X1.1Y0.525
X1.115Y2.105
X1.14Y2.155
X1.165Y2.305
X1.165Y2.255
X1.165Y2.205
X1.17Y0.53
X1.215Y0.905
X1.23Y0.805
X1.245Y0.705
X1.26Y0.52
X1.33Y0.525
X1.52Y2.18
X1.52Y0.52
X1.55Y2.08
X1.575Y2.23
X1.6Y2.28
X1.62Y0.515
X1.625Y0.805
X1.63Y2.03
X1.64Y0.705
X1.69Y0.53
X1.76Y0.535
X1.88Y1.685
X1.9Y2.355
X1.93Y2.33
X1.95Y2.405
X1.97Y2.48
X2.095Y1.645
X2.155Y0.455
X2.355Y1.205
X2.365Y0.475
X2.41Y2.03
X2.42Y1.71
X2.455Y1.605
X2.455Y0.53
X2.495Y2.455
X2.53Y1.63
X2.555Y0.555
X2.605Y1.305
X2.625Y0.47
X2.655Y0.65
X2.855Y0.505
X2.88Y0.755
X2.915Y0.825
X2.9625Y1.7125
X3.04Y0.89
X3.055Y1.605
X3.055Y1.455
X3.13Y1.355
X3.13Y1.155
X3.14Y0.99
X3.145Y1.28
X3.155Y0.625
X3.18Y2.455
X3.19Y2.055
X3.245Y2.03
X3.26Y0.595
X3.265Y1.335
X3.265Y1.055
X3.28Y1.505
X3.295Y1.435
X3.415Y1.205
X3.43Y1.155
X3.43Y0.725
X3.445Y1.26
X3.555Y1.105
X3.57Y1.235
X3.575Y1.615
X3.58Y1.505
X3.58Y0.445
X3.585Y0.995
X3.5893Y0.8907
X3.62Y1.615
X3.63Y0.445
X3.635Y2.435
X3.6465Y1.7465
X3.655Y1.455
X3.655Y1.355
X3.66Y0.895
X3.675Y1.305
X3.68Y1.53
X3.705Y0.995
X3.805Y1.855
X3.805Y1.405
X3.81Y1.48
X3.815Y1.23
X3.815Y1.1
X3.83Y1.905
X3.84Y1.005
X3.855Y2.03
X3.855Y0.445
X3.88Y0.755
X3.965Y1.44
X3.98Y1.005
X4.13Y1.005
X4.15Y1.605
X4.15Y1.48
X4.18Y1.555
X4.205Y2.38
X4.205Y0.73
X4.225Y1.195
X4.225Y0.875
X4.25Y1.55
X4.255Y2.46
X4.255Y0.915
X4.28Y2.38
X4.305Y1.83
X4.355Y2.405
X4.38Y0.955
X4.405Y2.13
X4.405Y1.83
X4.43Y0.83
X4.44Y1.585
X4.455Y2.405
X4.48Y2.105
X4.53Y2.33
X4.53Y2.13
X4.58Y2.355
X4.66Y1.305
X4.705Y2.055
X4.71Y1.255
X4.715Y1.995
X4.755Y2.33
X4.76Y1.155
X4.765Y2.205
X4.78Y2.355
X4.805Y2.255
X4.805Y1.995
X4.825Y2.0365
X4.83Y2.305
X4.905Y2.28
X4.905Y1.995
X4.905Y1.105
X4.905Y1.005
X4.93Y0.905
X4.945Y1.38
X4.985Y1.255
X4.985Y1.155
X5.005Y2.0
X5.03Y2.205
X5.065Y0.755
X5.18Y2.23
X5.25Y1.105
X5.495Y1.165
X5.53Y1.38
X5.53Y1.14
X5.55Y2.08
X5.555Y2.13
X5.555Y0.78
X5.61Y1.36
X5.61Y1.08
X5.61Y0.985
X5.655Y2.18
X5.68Y1.78
X5.705Y1.805
X5.73Y0.63
X5.745Y1.78
X5.795Y1.78
X5.83Y2.355
X5.83Y1.13
X5.905Y2.305
X5.93Y2.33
X5.93Y2.205
X6.03Y1.33
X6.08Y1.63
X6.08Y1.375
X6.175Y2.18
X6.23Y2.245
X6.455Y1.78
X6.555Y0.955
X6.555Y0.655
X6.715Y1.33
X6.73Y1.48
X6.73Y0.905
X6.865Y1.27
X6.885Y1.205
T2
X0.205Y1.375
X0.3034Y0.6566
X0.325Y1.375
X0.335Y1.59
X0.58Y0.655
X0.63Y1.605
X0.63Y0.555
X1.13Y1.555
X1.13Y1.455
X1.13Y0.655
X1.16Y0.605
X1.18Y1.61
X1.4665Y1.7465
X1.68Y1.555
X1.68Y1.455
X1.68Y0.655
X1.73Y1.61
X1.73Y0.605
X2.105Y0.655
X2.105Y0.555
X2.23Y1.455
X2.23Y0.955
X2.28Y1.605
X2.28Y0.855
X2.78Y1.355
X2.78Y1.155
X2.78Y0.955
X2.83Y0.855
X2.905Y0.655
X2.92Y1.755
X2.92Y0.47
X3.0106Y0.4706
X3.265Y0.855
X3.33Y0.955
X3.33Y0.54
X3.38Y0.855
X3.4Y0.47
X3.455Y0.47
X3.51Y0.47
X3.88Y0.955
X3.88Y0.655
X3.88Y0.54
X3.8825Y0.4725
X3.93Y1.63
X3.93Y0.855
X3.93Y0.585
X3.9965Y1.7465
X4.305Y1.63
X4.405Y1.73
X4.43Y1.255
X4.43Y1.105
X4.43Y0.655
X4.43Y0.54
X4.43Y0.47
X4.48Y1.605
X4.48Y0.595
X4.715Y1.095
X4.79Y0.735
X4.795Y1.015
X4.98Y0.655
X5.03Y0.58
X5.055Y2.3
X5.29Y1.43
X5.3044Y0.5394
X5.3056Y0.4706
X5.3081Y1.5331
X5.33Y1.73
X5.355Y1.63
X5.405Y0.655
X5.53Y0.855
X5.605Y2.25
X5.605Y1.98
X5.64Y0.805
X5.75Y2.3
X5.755Y2.005
X5.78Y0.605
X5.83Y1.805
X5.83Y1.73
X5.83Y1.68
X5.835Y0.54
X5.835Y0.47
X5.855Y2.005
X5.94Y1.99
X6.08Y1.03
X6.105Y2.25
X6.505Y2.205
X6.505Y1.755
X6.555Y0.47
X6.63Y1.53
X6.63Y1.03
X6.63Y0.705
X6.67Y0.855
X6.955Y2.105
T3
X6.055Y2.08
X6.155Y2.08
X6.055Y1.88
X6.155Y1.88
X7.105Y1.88
X7.105Y1.68
X7.205Y1.78
X7.205Y0.805
X7.205Y0.705
X3.03Y1.68
X3.13Y1.68
X3.605Y1.68
X3.705Y1.68
X7.105Y1.48
X7.105Y1.28
X7.205Y1.38
X0.205Y1.855
X0.305Y1.855
X7.305Y0.805
X7.305Y0.705
X6.055Y1.98
X6.155Y1.98
T4
X1.6566Y1.68
X1.755Y1.68
X3.755Y1.555
X3.755Y1.455
X3.755Y1.355
X3.755Y1.255
X3.755Y1.155
X3.755Y1.055
X3.755Y0.955
X4.055Y1.555
X4.055Y1.455
X4.055Y1.355
X4.055Y1.255
X4.055Y1.155
X4.055Y1.055
X4.055Y0.955
X3.63Y2.53
X3.7284Y2.53
X4.4066Y1.48
X4.505Y1.48
X5.835Y0.78
X5.835Y0.6816
X2.655Y1.555
X2.655Y1.455
X2.655Y1.355
X2.655Y1.255
X2.655Y1.155
X2.655Y1.055
X2.655Y0.955
X2.955Y1.555
X2.955Y1.455
X2.955Y1.355
X2.955Y1.255
X2.955Y1.155
X2.955Y1.055
X2.955Y0.955
X1.555Y1.555
X1.555Y1.455
X1.555Y1.355
X1.555Y1.255
X1.555Y1.155
X1.555Y1.055
X1.555Y0.955
X1.555Y0.855
X1.555Y0.755
X1.555Y0.655
X1.855Y1.555
X1.855Y1.455
X1.855Y1.355
X1.855Y1.255
X1.855Y1.155
X1.855Y1.055
X1.855Y0.955
X1.855Y0.855
X1.855Y0.755
X1.855Y0.655
X6.0566Y1.755
X6.155Y1.755
X3.305Y1.68
X3.4034Y1.68
X4.9566Y1.48
X5.055Y1.48
X1.005Y1.555
X1.005Y1.455
X1.005Y1.355
X1.005Y1.255
X1.005Y1.155
X1.005Y1.055
X1.005Y0.955
X1.005Y0.855
X1.005Y0.755
X1.005Y0.655
X1.305Y1.555
X1.305Y1.455
X1.305Y1.355
X1.305Y1.255
X1.305Y1.155
X1.305Y1.055
X1.305Y0.955
X1.305Y0.855
X1.305Y0.755
X1.305Y0.655
X0.5566Y1.68
X0.655Y1.68
X5.955Y0.88
X5.955Y0.58
X6.055Y0.88
X6.055Y0.58
X6.155Y0.88
X6.155Y0.58
X6.255Y0.88
X6.255Y0.58
X6.355Y0.88
X6.355Y0.58
X6.455Y0.88
X6.455Y0.58
X6.555Y0.88
X6.555Y0.58
X2.105Y1.555
X2.105Y1.455
X2.105Y1.355
X2.105Y1.255
X2.105Y1.155
X2.105Y1.055
X2.105Y0.955
X2.405Y1.555
X2.405Y1.455
X2.405Y1.355
X2.405Y1.255
X2.405Y1.155
X2.405Y1.055
X2.405Y0.955
X6.955Y2.525
X7.0534Y2.525
X1.08Y2.53
X1.1784Y2.53
X0.455Y1.555
X0.455Y1.455
X0.455Y1.355
X0.455Y1.255
X0.455Y1.155
X0.455Y1.055
X0.455Y0.955
X0.455Y0.855
X0.455Y0.755
X0.455Y0.655
X0.755Y1.555
X0.755Y1.455
X0.755Y1.355
X0.755Y1.255
X0.755Y1.155
X0.755Y1.055
X0.755Y0.955
X0.755Y0.855
X0.755Y0.755
X0.755Y0.655
X1.1066Y1.68
X1.205Y1.68
X4.855Y1.355
X4.855Y1.255
X4.855Y1.155
X4.855Y1.055
X4.855Y0.955
X4.855Y0.855
X4.855Y0.755
X4.855Y0.655
X5.155Y1.355
X5.155Y1.255
X5.155Y1.155
X5.155Y1.055
X5.155Y0.955
X5.155Y0.855
X5.155Y0.755
X5.155Y0.655
X5.955Y1.63
X5.955Y1.53
X5.955Y1.43
X5.955Y1.33
X5.955Y1.23
X5.955Y1.13
X5.955Y1.03
X6.255Y1.63
X6.255Y1.53
X6.255Y1.43
X6.255Y1.33
X6.255Y1.23
X6.255Y1.13
X6.255Y1.03
X4.305Y1.355
X4.305Y1.255
X4.305Y1.155
X4.305Y1.055
X4.305Y0.955
X4.305Y0.855
X4.305Y0.755
X4.305Y0.655
X4.605Y1.355
X4.605Y1.255
X4.605Y1.155
X4.605Y1.055
X4.605Y0.955
X4.605Y0.855
X4.605Y0.755
X4.605Y0.655
X5.405Y1.555
X5.405Y1.455
X5.405Y1.355
X5.405Y1.255
X5.405Y1.155
X5.405Y1.055
X5.405Y0.955
X5.405Y0.855
X5.705Y1.555
X5.705Y1.455
X5.705Y1.355
X5.705Y1.255
X5.705Y1.155
X5.705Y1.055
X5.705Y0.955
X5.705Y0.855
X6.6066Y1.755
X6.705Y1.755
X7.2266Y1.055
X7.325Y1.055
X2.2066Y1.68
X2.305Y1.68
X6.4066Y2.525
X6.505Y2.525
X1.93Y2.53
X2.0284Y2.53
X0.205Y0.955
X0.3034Y0.955
X6.505Y1.63
X6.505Y1.53
X6.505Y1.43
X6.505Y1.33
X6.505Y1.23
X6.505Y1.13
X6.505Y1.03
X6.805Y1.63
X6.805Y1.53
X6.805Y1.43
X6.805Y1.33
X6.805Y1.23
X6.805Y1.13
X6.805Y1.03
X2.7566Y1.68
X2.855Y1.68
X3.205Y1.555
X3.205Y1.455
X3.205Y1.355
X3.205Y1.255
X3.205Y1.155
X3.205Y1.055
X3.205Y0.955
X3.505Y1.555
X3.505Y1.455
X3.505Y1.355
X3.505Y1.255
X3.505Y1.155
X3.505Y1.055
X3.505Y0.955
X2.78Y2.53
X2.8784Y2.53
X6.955Y1.055
X7.0534Y1.055
X5.5066Y1.68
X5.605Y1.68
X4.005Y2.505
X4.005Y1.905
X4.105Y2.505
X4.105Y1.905
X4.205Y2.505
X4.205Y1.905
X4.305Y2.505
X4.305Y1.905
X4.405Y2.505
X4.405Y1.905
X4.505Y2.505
X4.505Y1.905
X4.605Y2.505
X4.605Y1.905
X4.705Y2.505
X4.705Y1.905
X4.805Y2.505
X4.805Y1.905
X4.905Y2.505
X4.905Y1.905
X5.005Y2.505
X5.005Y1.905
X5.105Y2.505
X5.105Y1.905
X5.205Y2.505
X5.205Y1.905
X5.305Y2.505
X5.305Y1.905
X5.405Y2.505
X5.405Y1.905
X5.505Y2.505
X5.505Y1.905
X5.605Y2.505
X5.605Y1.905
X5.705Y2.505
X5.705Y1.905
X5.805Y2.505
X5.805Y1.905
X5.905Y2.505
X5.905Y1.905
X6.03Y2.505
X6.1284Y2.505
X3.8566Y1.68
X3.955Y1.68
X6.755Y1.975
X6.755Y1.8766
X6.305Y2.405
X6.305Y2.305
X6.305Y2.205
X6.305Y2.105
X6.605Y2.405
X6.605Y2.305
X6.605Y2.205
X6.605Y2.105
X6.855Y2.405
X6.855Y2.305
X6.855Y2.205
X6.855Y2.105
X7.155Y2.405
X7.155Y2.305
X7.155Y2.205
X7.155Y2.105
T5
X3.505Y0.605
X3.605Y0.605
X3.705Y0.605
X7.055Y0.805
X7.055Y0.705
X7.055Y0.605
X6.905Y0.805
X6.905Y0.705
X6.905Y0.605
X2.405Y0.605
X2.505Y0.605
X2.605Y0.605
X5.505Y0.705
X5.605Y0.705
X5.705Y0.705
X2.405Y0.755
X2.505Y0.755
X2.605Y0.755
X0.255Y1.68
X0.255Y1.58
X0.255Y1.48
X0.255Y2.205
X0.255Y2.105
X0.255Y2.005
X6.755Y0.805
X6.755Y0.705
X6.755Y0.605
X4.555Y1.73
X4.555Y1.63
X4.655Y1.73
X4.655Y1.63
X4.755Y1.73
X4.755Y1.63
X4.855Y1.73
X4.855Y1.63
X4.955Y1.73
X4.955Y1.63
X5.055Y1.73
X5.055Y1.63
X5.155Y1.73
X5.155Y1.63
X5.255Y1.73
X5.255Y1.63
X3.505Y0.755
X3.605Y0.755
X3.705Y0.755
X3.005Y0.755
X3.105Y0.755
X3.205Y0.755
T0
M30
